<svg xmlns="http://www.w3.org/2000/svg" viewBox="0 0 709.57 139.87"><defs><style>.cls-1{fill:#bf3834;}.cls-2{fill:#080808;}.cls-3{fill:#0b0b0c;}.cls-4{fill:#c64543;}</style></defs><g id="Layer_2" data-name="Layer 2"><g id="Layer_1-2" data-name="Layer 1"><path class="cls-1" d="M114.3,118.37c5.15-7.49,4.9-13.35-1.09-20.3-3.26-3.78-6.65-7.45-10.13-11-1.82-1.87-2.29-3.34-.19-5.37a59.58,59.58,0,0,0,6.31-7.06c2-2.68,3.41-2.11,5.37.14,3.5,4,7.32,7.72,11,11.62,9.27,10,10.22,21.8,6.57,34-3.37,11.32-13.12,17.75-25,17.8-22.65.11-22.65.11-38.46-16a22.16,22.16,0,0,1-2.07-2.16c-2.12-2.85-3.92-2.62-6.22,0-3.39,3.89-7.09,7.5-10.71,11.17a28.78,28.78,0,0,1-39.72,1.31c-11.54-10.3-13.38-29.14-3.62-40.63,5.17-6.08,10.93-11.65,16.47-17.4a15.64,15.64,0,0,0,3.56-4.75c1.65-1.16.84-5,4.42-4-.76,6.5-.92,13,1.48,19.22.87,2.24-.07,3.74-1.55,5.31-4.11,4.37-8.45,8.57-12.06,13.33-5.61,7.4-1.32,18,7.74,19.94a11,11,0,0,0,10.54-3.15c4.83-4.83,9.45-9.87,14.35-14.63,1.8-1.76,1-2.72-.3-4-2.61-2.57-5.28-5.1-7.72-7.82-10.93-12.17-10.87-28.13.09-40.17,1.46-1.6,3-3.14,4.53-4.66,8.38-8.29,8.31-8.22,16.52.13,2.06,2.1,2.52,3.45.13,5.59-3,2.66-5.61,5.7-8.4,8.56-7.63,7.82-7.73,13.54-.37,21.6.68.73,1.3,1.51,1.94,2.27.81,4.29,3.42,6.76,7.67,7.58l.06.06c0,1.49.21,2.88,2.23,2.81l.9.9c0,1.84-.25,3.52-2.28,4.26-1.88-1.09-3.81-1.6-5.28.49-1.61,2.29.34,3.7,1.68,5.08,3.72,3.8,7.52,7.53,11.29,11.28,15.78,15.74,8.08,12,30.85,13.22,14.45.77,25.79-10.75,23.66-26.84-.22-1.68.08-4.31-2.34-4.2-2.2.11-2.92,2.27-2.91,4.53a31.94,31.94,0,0,1-.57,5.93c-1.78,9.57-7.23,13.79-17.18,13.39l-1-4.87,4,0C111.42,122.36,113.82,122.64,114.3,118.37Z"/><path class="cls-1" d="M55.7,25.24c3.67,2.69,6,6.59,9.2,9.76.93.93,1.93,1.79,2.94,2.64,1.43,1.21,2.9,1.62,4.33,0,1.26-1.46.68-2.79-.38-4-7-8-14.06-16-21.91-23.24a10.88,10.88,0,0,0-7.83-2.64c-8.49,0-17-.11-25.47-.1-6.54,0-9.93,3.17-10.09,9.69-.19,7.49,0,15-.17,22.48a9.94,9.94,0,0,0,2.75,6.76c3.44,4.07,7,8,10.5,12,1.32,1.5,2.68,3,3,5.09a3.17,3.17,0,0,1-1.7,3.34c-1.11.55-1.58-.85-2.21-1.55-.12-.12-.2-.27-.31-.39C-3.5,41,1.66,50.54,1.32,16.21,1.24,7.7,6.59,2.58,15.16,2.3c9.48-.31,19-.07,28.47,0A15.92,15.92,0,0,1,55.14,7.54c4.42,4.53,8.9,9,13.18,13.65C70,23,71.1,23,72.74,21.26c4.15-4.32,8.4-8.55,12.66-12.77a28.67,28.67,0,0,1,39.35-1.3C136.05,17,138.49,35.54,129.1,47c-7.47,9.09-16,17.27-24.87,26.65-.67-7.33-1-13.62-3.2-19.56-.67-1.78,1-2.68,2-3.7,3.84-3.93,7.82-7.72,11.61-11.7a13.18,13.18,0,0,0-.2-18.77c-5.2-5.07-12.53-4.6-18.06,1.11-4.28,4.43-8.49,8.94-13,13.18-2,1.86-1.88,2.94,0,4.74a104.28,104.28,0,0,1,9.31,9.73,28.75,28.75,0,0,1-2,39c-3.29,3.3-6.51,6.67-9.76,10-.58.59-1.2,1.71-1.76,1.68-5.07-.25-6.61-5.2-10-7.77-1.8-1.37-1.81-2.76,0-4.44,3.63-3.43,7.07-7.06,10.56-10.63C86,70.11,86,63.17,79.55,56.71c-8.77-8.84-18.23-17-26.24-26.59C53,28,54.66,26.75,55.7,25.24Z"/><path class="cls-2" d="M382.73,71.38c.26,5.17.76,10.29,2.7,15.16,3.36,8.42,10.36,13.26,18.82,13s13.91-4.73,16.91-13.74c.69-2.07.78-4,3.93-4,6.07-.06,6.6.37,4.85,6.37-3.19,10.9-10,18.07-21.55,19.45-12.34,1.49-23.22-1.92-29.46-13.34-8.4-15.39-8.32-31.49.19-46.76,6.42-11.55,17.53-14.67,30.1-12.77,11.29,1.71,17.91,8.8,20.93,19.48.39,1.4,2.25,4.21-.38,4.47s-6.83,2.65-8.38-2.26c-2.54-8.08-7.58-13.18-16.38-13.66-9.46-.52-16.27,4-19.66,13A46.3,46.3,0,0,0,382.73,71.38Z"/><path class="cls-2" d="M262.11,99.64c-4.34,4.4-8.26,7.31-13.43,8-10.14,1.33-19.45-4.53-23.05-15.07a37.28,37.28,0,0,1,.63-26.35c6.45-16.45,26.66-17.8,34.62-6.39C262.63,59.45,262,58,262,57c.05-6.82.15-13.64-.07-20.45-.12-3.81,2.44-2.77,4.36-2.77s4.37-1.14,4.36,2.69q-.12,33.44.1,66.87c0,2.37-.71,3.51-3.09,3-1.92-.38-5.08,1.59-5.16-2.56C262.47,102.88,262.32,101.93,262.11,99.64Zm.21-20.2a22.91,22.91,0,0,0-2.62-11.52c-5.1-9.59-17.81-10.15-23.67-1-4.51,7-4.21,20.29.61,27.1,6.08,8.59,18,7.8,23-1.49C261.7,88.56,262.36,84.34,262.32,79.44Z"/><path class="cls-3" d="M613.87,82.45c-5.16,0-10.32,0-15.48,0-1.81,0-3.14,0-3,2.57.36,6.57,5.11,13.07,11,14.59,6.83,1.76,13.16-.93,16.57-7.73,2-4.05,5.48-2.5,7.73-1.91,2.41.63.56,3.39-.13,5.05-3.35,8-9.6,12.14-18.12,12.73-9.11.64-17.12-2-21.77-10.25-6.42-11.39-6.5-23.35.06-34.72,5-8.76,13.48-11.45,23.19-10.13,9.38,1.28,14.42,7.51,17.26,16a21.57,21.57,0,0,1,.53,2.44c2.48,11.29,2.31,11.5-8.88,11.43-3,0-6,0-9,0Zm-4.23-7.12v.07c3.65,0,7.31-.13,11,0,2.63.13,3-1,2.71-3.27C622.41,65,616.94,60,609.89,60a14.81,14.81,0,0,0-14.23,12.89c-.24,2.25.8,2.5,2.54,2.48C602,75.3,605.83,75.33,609.64,75.33Z"/><path class="cls-3" d="M349.79,107.9c-12.51-.07-19.27-4.39-21.68-13.62-.4-1.52-1.93-4,.85-4.32,2.38-.25,5.64-2,7.38,1.66,3.73,7.75,9.53,10.4,17.83,8.18,3.66-1,6.49-2.94,6.7-7s-2.41-6.38-6.13-7.36c-5.62-1.49-11.41-2.45-16.87-4.36-7.91-2.77-11.11-10.27-8.34-18.15a13.77,13.77,0,0,1,.61-1.36c3.13-6.67,10.94-9.91,21.6-8.95,8.5.76,14.1,4.94,16,12,.37,1.43,1.81,3.79-.62,4.12s-5.71,1.86-7.54-1.41c-3.92-7-10.42-9.46-17.36-6.29-2.77,1.27-4.59,3.31-4.66,6.5-.08,3.36,2,5.32,4.9,6.12,5.76,1.59,11.73,2.5,17.41,4.33,9.42,3,12.91,13.38,7.76,21.92a15.22,15.22,0,0,1-8.54,6.53A25.45,25.45,0,0,1,349.79,107.9Z"/><path class="cls-3" d="M481.68,80a50.55,50.55,0,0,1-1.26,9.45C477.66,101.22,469.07,108,457,107.79c-11.8-.18-20.32-7.49-22.56-19.38a43.29,43.29,0,0,1,.09-16.4C437,59.67,445.3,52.6,457.45,52.44s20.41,6.63,23.09,19.16C481.12,74.36,481.31,77.19,481.68,80ZM443,80a33.19,33.19,0,0,0,1.47,10.33c2.21,6.19,6.46,9.48,12.54,9.68a13.1,13.1,0,0,0,13.23-8.74,29.57,29.57,0,0,0-.1-22.88c-2.28-5.43-6.53-8.4-12.46-8.35S447.58,63,445.08,68.34C443.34,72.07,443,76,443,80Z"/><path class="cls-3" d="M313,98.88c-5.48,7.41-11.93,9.73-19.62,8.7-7.46-1-12.71-5.62-13.84-13.06-2-12.91-.72-25.94-.67-38.92,0-4,4-1.23,6-1.89s2.78.59,2.75,2.71c-.1,8.67-.07,17.33,0,26a54.11,54.11,0,0,0,.3,7c.8,5.92,3.66,9.14,8.73,10.18a13.09,13.09,0,0,0,13.79-5.9c2.17-3.56,2.58-7.51,2.6-11.54,0-8.33.3-16.67-.09-25-.2-4.2,2.11-3.53,4.6-3.62,2.73-.1,4.63-.12,4.57,3.75-.2,14.82,0,29.65,0,44.47,0,2.28,1,5-3.35,5-3.67,0-5.77-.68-5.23-4.82A15.07,15.07,0,0,0,313,98.88Z"/><path class="cls-2" d="M581.09,85.36c0,7-.24,12.4.08,17.71.26,4.29-2.48,3.34-4.86,3.42s-4.42.35-4.3-3.4c.3-9.49.17-19,.13-28.48,0-8.92-3.62-13.53-10.79-14-7.82-.56-13.57,4.11-14.15,12.75-.62,9.45-.41,19-.22,28.45.07,3.61-.74,4.76-4.61,4.85-4.19.1-4.43-1.62-4.4-4.94.13-14.49,0-29,.1-43.47,0-1.53-1.66-4.67,1.88-4.46,2.34.13,6.23-2.38,6.62,3.15.23,3.34,2.23,1.62,3.58.3,5.05-4.94,11.27-5.42,17.7-4.28,7,1.25,11.41,6.18,12.59,13.71C581.51,73.41,580.92,80.26,581.09,85.36Z"/><path class="cls-2" d="M487.13,80q0-11.51,0-23c0-1.81-.42-4,2.56-3.44,2.15.43,5.8-1.92,5.78,2.94,0,3,1.15,3.23,3.15,1.2,4.16-4.24,9.33-5.47,15.07-5.16,8.77.48,14.57,5.06,15.82,13.76,1.79,12.57.58,25.28.64,37.92,0,4.24-3.84,1.61-5.87,2.17-2.29.63-3.13-.53-3.1-3,.13-10.33.23-20.66,0-31-.13-6.6-3.51-10.71-8.82-11.71-6.77-1.28-12.35,1.64-15,7.84a24.24,24.24,0,0,0-1.63,9.78c0,7.67.06,15.33.07,23,0,4.62-3.4,6.85-7.56,5.05-1.75-.76-1.12-2.23-1.13-3.42-.06-7.67,0-15.33,0-23Z"/><path class="cls-3" d="M184.66,60.86c4.75-6.63,10.74-8.9,18-8.34,8.91.69,15.05,5.9,15.56,15.16.67,12.11.32,24.27.34,36.42,0,4.22-3.3,2-5.15,2.37-2.1.42-3.79.18-3.73-2.94.2-9.81.2-19.63.09-29.45s-5.37-14.68-14.22-13.37c-6.48,1-10.85,6.39-11.08,14.52-.26,9-.27,18,0,27,.1,3.64-1.15,4.42-4.53,4.38s-4.63-.6-4.57-4.34c.24-14.47.07-28.95.14-43.42,0-2.3-1.39-5.41,3.36-5.33,3.64.07,5.71.66,5.19,4.77A10.76,10.76,0,0,0,184.66,60.86Z"/><path class="cls-3" d="M635.28,81c-.14-7.17,1.32-13.44,5.12-19,5.77-8.35,14.12-10.73,23.69-9.3,8.17,1.22,13.56,6,15.69,14.07.4,1.52,2,4.25-.4,4.57s-6.47,2.49-8-2.24c-1.62-5.08-5-8.13-10.42-8.63-6.45-.61-11.8,2.3-14.39,8.48a27.86,27.86,0,0,0,.13,22.81c2.39,5.38,6.77,8.06,12.69,8,5.68-.07,9.65-3.06,12-8.92.71-1.79.83-3.66,3.68-3.81,5.92-.33,6.43.12,4.63,5.84-2.72,8.69-8.59,13.8-17.6,14.7-9.66,1-17.77-1.91-22.89-10.83A29.77,29.77,0,0,1,635.28,81Z"/><path class="cls-2" d="M703.15,107.34c-10,0-14.07-3.84-14.16-13.45s-.11-19,.14-28.45c.08-3.28-.89-4.54-4.15-4.12-2.91.38-4.42-.3-4.48-4-.07-3.85,1.76-4.13,4.5-3.8,3,.36,4.28-.77,4-3.87-.19-2,.21-4,0-6-.43-3.76.73-5.23,4.81-5,2.93.17,4.41.62,4,3.8a20,20,0,0,0,0,3c0,7.82,0,8,8,8.11,3,0,3.24,1.35,3.1,3.63-.12,2,.37,3.78-2.87,3.92-8.29.38-8.29.58-8.32,8.91,0,7.32-.11,14.64,0,22,.09,5.37,2.11,7.4,7.23,7.31,2.65,0,4.61-.5,4.69,3.54s-1.82,4.32-4.7,4.34C704.2,107.23,703.54,107.31,703.15,107.34Z"/><path class="cls-2" d="M157.54,70.78c0-10.48.25-21-.12-31.44-.15-4.46,2.38-3.66,5-3.78s4.52-.16,4.48,3.72q-.33,31.68,0,63.37c0,3.67-1.56,4.06-4.44,3.8-2.5-.22-5.22.8-5.07-3.74.34-10.64.11-21.29.11-31.93Z"/><path class="cls-4" d="M55.7,25.24c-1,1.51-2.69,2.72-2.39,4.88-.27-.18-.66-.29-.81-.54-7.64-12.86-20.21-9.73-31.79-9.82-1.71,0-2.33.78-2.33,2.41,0,5.63-.08,11.25,0,16.88.06,2.86,2.79,4.38,3.91,6.74-3.85.62-4.91-4.85-8.84-4-1.9-8.5-.55-17.11-.75-25.66-.05-1.84,1.66-2.22,3.29-2.22L42.39,14a6,6,0,0,1,4.43,1.94Q51.28,20.56,55.7,25.24Z"/><path class="cls-4" d="M104.47,120.84l1,4.87c-3.48.06-7-.12-10.43.23-4.93.5-8.53-1.36-11.76-5-5.51-6.18-11.32-12.1-17-18.13,2-.74,2.3-2.42,2.28-4.26,5.72,3.84,10.15,9.09,14.45,14.27,4.6,5.54,9.63,8.83,17,7.74A21.72,21.72,0,0,1,104.47,120.84Z"/><path class="cls-1" d="M13.49,41.75c3.93-.81,5,4.66,8.84,4l.08.1c.15,3.29,1.95,5.14,5.08,5.85,3,2.69,4.58,5.88,3.81,10l-4.73-1c0-3-2.09-4.76-3.68-6.86C19.78,49.81,15.45,46.69,13.49,41.75Z"/><path class="cls-4" d="M26.57,60.74l4.73,1a5.6,5.6,0,0,1-.54,4c-3.58-.94-2.77,2.89-4.42,4Q26.46,65.26,26.57,60.74Z"/><path class="cls-4" d="M65.35,94.8c-4.25-.82-6.86-3.29-7.67-7.58A47.41,47.41,0,0,1,65.35,94.8Z"/><path class="cls-4" d="M27.49,51.74c-3.13-.71-4.93-2.56-5.08-5.85A19,19,0,0,1,27.49,51.74Z"/><path class="cls-4" d="M114.3,118.37c-.48,4.27-2.88,4-5.81,2.45Z"/><path class="cls-4" d="M67.64,97.67c-2,.07-2.19-1.32-2.23-2.81A3.66,3.66,0,0,1,67.64,97.67Z"/></g></g></svg>